<?xml version="1.0" standalone="no"?><!DOCTYPE svg PUBLIC "-//W3C//DTD SVG 1.1//EN" "http://www.w3.org/Graphics/SVG/1.1/DTD/svg11.dtd"><svg t="1711511686341" class="icon" viewBox="0 0 1024 1024" version="1.1" xmlns="http://www.w3.org/2000/svg" p-id="24686" data-spm-anchor-id="a313x.search_index.0.i29.24163a81niYB2v" width="48" height="48" xmlns:xlink="http://www.w3.org/1999/xlink"><path d="M561.152 839.8848c-144.7936-29.9008-287.9488-59.392-432.7424-89.2928 15.5648-3.2768 29.696-6.144 43.8272-9.0112 42.1888-8.6016 84.3776-17.6128 126.7712-25.1904 9.6256-1.6384 20.0704 1.4336 30.1056 3.2768 19.2512 3.4816 38.5024 7.5776 57.5488 11.4688 3.4816 0.8192 7.168 1.8432 10.24 3.8912 53.4528 33.9968 106.7008 67.9936 159.9488 101.9904 1.024 0.8192 1.8432 1.2288 4.3008 2.8672zM732.16 714.1376c-18.432 4.9152-36.2496 9.6256-54.272 14.336-26.8288 6.9632-53.6576 13.7216-80.0768 21.0944-9.0112 2.4576-17.408 0-25.6-1.6384-69.8368-13.7216-139.4688-27.648-209.1008-41.5744-1.8432-0.4096-3.4816-1.024-6.7584-1.8432 36.864-7.5776 72.4992-14.7456 107.9296-21.9136 21.7088-4.3008 43.4176-9.4208 65.3312-12.6976 7.5776-1.2288 15.7696 1.024 23.552 2.8672 59.1872 13.312 118.3744 27.0336 177.5616 40.5504 0 0 0.4096 0.4096 1.4336 0.8192zM178.3808 669.696l143.1552-47.7184c2.2528-0.8192 5.3248-0.8192 7.5776-0.4096 53.4528 12.0832 106.9056 24.3712 160.3584 36.6592 0.4096 0 0.6144 0.4096 1.4336 1.024-33.1776 6.5536-66.3552 13.1072-99.328 19.6608-24.9856 4.9152-49.9712 9.6256-74.752 14.9504-9.0112 2.048-17.2032-0.2048-25.6-1.8432-37.2736-7.168-74.3424-14.7456-112.8448-22.3232zM445.2352 743.0144c96.8704 19.2512 192.512 38.2976 289.9968 57.5488-18.6368 7.3728-35.4304 13.9264-52.224 20.48-22.3232 8.8064-44.6464 17.408-66.9696 26.2144-3.8912 1.6384-7.168 1.6384-10.8544-0.8192-52.8384-33.9968-105.6768-67.9936-158.3104-101.9904-0.4096 0-0.6144-0.4096-1.6384-1.4336zM599.8592 657.6128c25.6-5.12 39.3216-10.4448 64.7168-15.5648 6.144-1.2288 12.4928-1.8432 18.432-3.8912 20.0704-6.7584 39.1168 0 58.368 3.2768 49.7664 8.8064 99.328 17.8176 148.8896 26.8288 2.2528 0.4096 4.7104 1.024 8.8064 2.048-14.336 3.6864-27.0336 7.168-39.7312 10.4448-25.6 6.7584-51.2 13.5168-77.0048 20.0704-3.072 0.8192-6.144 0.8192-9.0112 0.2048-61.8496-13.7216-111.8208-27.648-173.6704-41.7792 0.2048-0.8192 0.2048-0.6144 0.2048-1.6384zM873.472 746.496c-14.1312 5.5296-27.4432 10.8544-40.7552 16.1792-19.0464 7.5776-38.0928 15.1552-57.344 22.3232-3.6864 1.4336-8.192 2.048-11.8784 1.2288-44.2368-8.6016-88.2688-17.6128-134.3488-26.8288 7.5776-2.048 13.312-3.4816 18.8416-5.12 38.0928-9.8304 76.1856-19.6608 114.4832-29.2864 5.5296-1.4336 11.6736-1.4336 17.2032-0.2048 29.4912 6.3488 58.9824 13.312 88.4736 20.0704 1.4336 0.2048 2.8672 0.8192 5.3248 1.6384zM9.0112 726.2208c43.6224-14.5408 85.4016-28.4672 127.1808-42.1888 3.4816-1.2288 7.7824-0.6144 11.4688 0 33.9968 6.5536 67.9936 13.312 101.7856 20.0704 1.6384 0.4096 3.2768 1.024 6.7584 1.8432-16.9984 3.4816-32.5632 6.5536-47.9232 9.6256-40.5504 7.9872-80.896 16.5888-121.6512 23.7568-8.192 1.4336-17.2032-1.2288-25.6-2.6624-16.7936-3.072-33.5872-6.7584-52.0192-10.4448zM818.9952 710.4512c15.5648-3.8912 30.9248-7.9872 46.4896-11.8784 19.8656-5.12 39.7312-10.0352 59.392-15.36 11.8784-3.2768 23.3472-4.9152 35.84-1.8432 16.9984 4.096 34.4064 6.5536 53.8624 10.0352-5.9392 2.4576-10.0352 4.096-14.1312 5.7344-27.648 10.8544-55.0912 21.7088-82.7392 32.1536-4.5056 1.6384-10.24 2.048-14.9504 1.024-27.8528-5.7344-55.5008-12.288-83.3536-18.432-0.2048-0.6144-0.2048-1.024-0.4096-1.4336zM474.9312 236.3392L346.112 317.44l129.6384 81.5104 128.8192-81.1008-129.6384-81.5104z" fill="#1296db" p-id="24687" data-spm-anchor-id="a313x.search_index.0.i27.24163a81niYB2v" class=""></path><path d="M525.1072 438.0672H604.16v-120.832l-129.2288 81.3056v289.9968l50.176-7.9872V438.0672z" fill="#f1a4ca" p-id="24688" data-spm-anchor-id="a313x.search_index.0.i30.24163a81niYB2v" class="selected"></path><path d="M593.92 391.168l-94.8224 59.8016 95.6416 60.0064 94.8224-59.8016L593.92 391.168z" fill="#f1a4ca" p-id="24689" data-spm-anchor-id="a313x.search_index.0.i28.24163a81niYB2v" class="selected"></path><path d="M594.1248 510.7712v178.3808l95.232-36.4544v-201.9328l-95.232 60.0064zM312.5248 448.9216l-72.0896 45.4656 72.4992 45.8752 72.0896-45.4656-72.4992-45.8752z" fill="#f1a4ca" p-id="24690" data-spm-anchor-id="a313x.search_index.0.i31.24163a81niYB2v" class="selected"></path><path d="M312.5248 540.0576v155.648l72.2944-45.4656v-155.648l-72.2944 45.4656z" fill="#f1a4ca" p-id="24691" data-spm-anchor-id="a313x.search_index.0.i33.24163a81niYB2v" class="selected"></path><path d="M507.4944 592.896c-15.36-3.2768-31.5392-6.5536-49.3568-9.8304-8.192-1.4336-17.408-4.5056-24.9856-2.4576-22.1184 5.9392-43.4176 13.9264-65.7408 21.504 0.8192 0.8192 1.024 1.024 1.2288 1.024 46.2848 10.4448 92.7744 20.8896 139.0592 31.1296v-41.3696z" fill="#f1a4ca" p-id="24692" data-spm-anchor-id="a313x.search_index.0.i32.24163a81niYB2v" class="selected"></path></svg>