<?xml version="1.0" standalone="no"?><!DOCTYPE svg PUBLIC "-//W3C//DTD SVG 1.1//EN" "http://www.w3.org/Graphics/SVG/1.1/DTD/svg11.dtd"><svg t="1710576099620" class="icon" viewBox="0 0 1024 1024" version="1.1" xmlns="http://www.w3.org/2000/svg" p-id="16762" xmlns:xlink="http://www.w3.org/1999/xlink" width="24" height="24"><path d="M273.364657 598.716662l19.827909 96.76882c-135.239275 28.233219-195.854488 78.449555-195.854487 105.33577 0 42.080428 137.071201 123.223993 389.068846 123.223993s389.014966-82.005648 389.014966-123.223993c0-13.470047-15.409734-31.41215-40.625663-47.953368a444.511561 444.511561 0 0 0-147.200677-56.035397l19.88179-95.475695c168.429471 36.315248 265.252171 109.376784 265.252171 199.46446 0 67.673518-56.143157 127.696048-159.162079 168.483352a898.937076 898.937076 0 0 1-327.160508 54.20347 917.256341 917.256341 0 0 1-327.160509-54.20347c-103.018922-41.218345-159.162079-99.031788-159.162079-168.483352 0-92.781686 99.516709-165.843222 273.226439-202.10459z m336.805062-341.92368a63.363102 63.363102 0 0 1 66.811435 50.162456l9.698434 199.41058a31.088869 31.088869 0 0 1-32.705275 31.789312h-34.914363l-7.112185 287.289168c-6.519503 31.519911-35.022123 53.341387-66.757554 51.07842H430.263768a63.363102 63.363102 0 0 1-65.895472-51.07842L356.87895 537.724288h-36.692409a36.423008 36.423008 0 0 1-25.64697-9.860074 26.616813 26.616813 0 0 1-7.974268-22.845201l9.698434-198.494617a62.932061 62.932061 0 0 1 65.895471-49.731414zM486.406925 0c67.727398 0.269401 122.46967 56.035397 122.361909 124.732638-0.05388 68.697241-54.957793 124.355477-122.63131 124.463237-67.727398 0.05388-122.739071-55.496595-122.954592-124.139956C363.182932 55.981517 418.302366 0 486.406925 0z" p-id="16763" fill="#ffffff"></path></svg>