<?xml version="1.0" standalone="no"?><!DOCTYPE svg PUBLIC "-//W3C//DTD SVG 1.1//EN" "http://www.w3.org/Graphics/SVG/1.1/DTD/svg11.dtd"><svg t="1710575092345" class="icon" viewBox="0 0 1024 1024" version="1.1" xmlns="http://www.w3.org/2000/svg" p-id="15466" xmlns:xlink="http://www.w3.org/1999/xlink" width="24" height="24"><path d="M811.885714 635.640686V726.089143a85.796571 85.796571 0 0 1-80.354743 85.635657l-5.441828 0.160914H638.193371v-42.0864H726.089143a43.702857 43.702857 0 0 0 43.52-39.497143l0.190171-4.213028V635.640686H811.885714z m-550.370743-4.469029V726.089143a43.702857 43.702857 0 0 0 39.497143 43.52l4.213029 0.190171h93.783771V811.885714H305.225143a85.796571 85.796571 0 0 1-85.635657-80.354743L219.428571 726.089143V631.171657h42.0864zM515.657143 369.9712c77.472914 0 147.631543 48.566857 210.432 145.685943-62.800457 97.1264-132.959086 145.685943-210.432 145.685943-77.472914 0-147.631543-48.566857-210.432-145.685943 62.800457-97.1264 132.959086-145.685943 210.432-145.685943z m0 42.0864c-54.645029 0-106.839771 32.080457-157.0816 100.330057l-2.399086 3.269486 2.399086 3.269486c48.237714 65.528686 98.260114 97.704229 150.542628 100.169142l6.538972 0.160915c54.645029 0 106.839771-32.080457 157.0816-100.330057l2.362514-3.269486-2.362514-3.269486c-48.237714-65.528686-98.260114-97.704229-150.542629-100.169143l-6.538971-0.160914z m0 55.04a48.566857 48.566857 0 1 1 0 97.119086 48.566857 48.566857 0 0 1 0-97.119086zM726.089143 219.428571a85.796571 85.796571 0 0 1 85.635657 80.354743l0.160914 5.441829v107.154286h-42.0864V305.225143a43.702857 43.702857 0 0 0-39.497143-43.52l-4.213028-0.190172H637.096229V219.428571H726.089143z m-330.642286 0v42.0864H305.225143a43.702857 43.702857 0 0 0-43.52 39.497143l-0.190172 4.213029v101.844114H219.428571V305.225143a85.796571 85.796571 0 0 1 80.354743-85.635657L305.225143 219.428571h90.221714z" fill="#ffffff" p-id="15467"></path></svg>