<?xml version="1.0" standalone="no"?><!DOCTYPE svg PUBLIC "-//W3C//DTD SVG 1.1//EN" "http://www.w3.org/Graphics/SVG/1.1/DTD/svg11.dtd"><svg t="1710572321059" class="icon" viewBox="0 0 1024 1024" version="1.1" xmlns="http://www.w3.org/2000/svg" p-id="13367" xmlns:xlink="http://www.w3.org/1999/xlink" width="24" height="24"><path d="M849.92 473.6l-146.944-116.224 59.904-13.312c-53.248-86.528-147.456-139.776-249.344-140.288-152.576 2.048-280.064 117.76-296.448 269.824H215.04c0.512 20.992-16.384 38.4-37.376 38.4-20.992-0.512-37.888-17.408-37.376-38.4 16.896-194.56 178.176-344.576 373.76-347.136 137.728 1.024 263.68 77.824 327.68 200.192l80.384-17.92L849.92 473.6zM439.296 512c1.536-41.472 35.84-73.728 77.312-72.192s73.728 35.84 72.192 77.312c-1.024 40.448-34.304 72.192-74.752 72.192-41.984-1.024-75.776-35.328-74.752-77.312z m-117.248 154.624l-60.416 13.312c53.76 86.528 148.48 139.776 250.368 140.288 153.088-2.048 281.088-117.76 297.472-269.824h2.56c-0.512-20.48 15.36-37.888 36.352-38.912 20.48-0.512 37.888 15.36 38.912 36.352v2.56c-17.408 195.072-179.712 344.576-375.296 347.136-138.24-0.512-264.704-77.824-328.704-200.192L102.4 715.264l75.264-164.864 144.384 116.224z" p-id="13368" fill="#ffffff"></path></svg>