<?xml version="1.0" standalone="no"?><!DOCTYPE svg PUBLIC "-//W3C//DTD SVG 1.1//EN" "http://www.w3.org/Graphics/SVG/1.1/DTD/svg11.dtd"><svg t="1709866280299" class="icon" viewBox="0 0 1024 1024" version="1.1" xmlns="http://www.w3.org/2000/svg" p-id="6356" id="mx_n_1709866280300" width="32" height="32" xmlns:xlink="http://www.w3.org/1999/xlink"><path d="M512 72c-197.4 0-358 159.79-358 356.22C154 613 427 896.3 457.77 927.58 468.5 943 488.24 952 512 952c20.21 0 36.54-6.86 51.46-21.61C566.53 927.32 870 623 870 428.22 870 231.79 709.4 72 512 72z m0 458.72c-72.94 0-133.69-60.45-133.69-133s60.74-133 133.69-133 133.65 60.4 133.65 133-60.71 133-133.65 133z" fill="#1afa29" p-id="6357"></path></svg>