<?xml version="1.0" standalone="no"?><!DOCTYPE svg PUBLIC "-//W3C//DTD SVG 1.1//EN" "http://www.w3.org/Graphics/SVG/1.1/DTD/svg11.dtd"><svg t="1713670938070" class="icon" viewBox="0 0 1024 1024" version="1.1" xmlns="http://www.w3.org/2000/svg" p-id="923" xmlns:xlink="http://www.w3.org/1999/xlink" width="48" height="48"><path d="M207.36 688.224v9.504c-8.704 0 19.488-29.632 13.312-35.712-11.872-11.712-10.048-8.448 0-21.184L207.36 608c-20.256-12.064-25.792-33.376-16.512-64 5.472-18.112-7.616-41.28 0-48.768l297.888-293.728a33.28 33.28 0 0 1 43.424-2.688l3.104 2.688 292.48 288.384c8.096 8 2.144 44.384 0 54.112-4.8 21.824-11.328 47.584-19.552 77.28 6.144 6.08 0 42.112 0 50.72 0 16.64 35.936 55.456 19.552 57.344l-19.552 25.664V704v250.688c0 17.92-17.6 12.288-35.776 12.288H252.608c-18.176 0-31.936 17.92-31.936 0v-269.248l-13.312 17.856v-27.36z" fill="#FFCB01" p-id="924"></path><path d="M94.72 568a62.944 62.944 0 0 1-44.192-18.08c-22.624-22.304-24.736-57.824-3.936-84.096l3.936-4.288 417.28-411.456a63.04 63.04 0 0 1 82.496-5.12l1.536 1.28 4.352 3.84 417.28 411.456c11.84 11.68 18.528 27.584 18.528 44.192 0 31.808-24.064 58.272-57.312 62.016l-5.408 0.256h-78.144v361.728c0 34.496-28.16 62.272-62.72 62.272H235.584c-34.528 0-62.72-27.776-62.72-62.272V568H94.72z m3.776-64h138.368V928h550.272V504l138.336 0.064-412.768-407.04-0.704-0.64L98.496 504zM368 480h64a32 32 0 0 1 32 32v64a32 32 0 0 1-32 32h-64a32 32 0 0 1-32-32v-64a32 32 0 0 1 32-32z m224 0h64a32 32 0 0 1 32 32v64a32 32 0 0 1-32 32h-64a32 32 0 0 1-32-32v-64a32 32 0 0 1 32-32z m-224 224h64a32 32 0 0 1 32 32v64a32 32 0 0 1-32 32h-64a32 32 0 0 1-32-32v-64a32 32 0 0 1 32-32z m224 0h64a32 32 0 0 1 32 32v64a32 32 0 0 1-32 32h-64a32 32 0 0 1-32-32v-64a32 32 0 0 1 32-32z" fill="#1C412F" p-id="925"></path></svg>