<?xml version="1.0" standalone="no"?><!DOCTYPE svg PUBLIC "-//W3C//DTD SVG 1.1//EN" "http://www.w3.org/Graphics/SVG/1.1/DTD/svg11.dtd"><svg t="1711199167066" class="icon" viewBox="0 0 1032 1024" version="1.1" xmlns="http://www.w3.org/2000/svg" p-id="65070" xmlns:xlink="http://www.w3.org/1999/xlink" width="32.25" height="32"><path d="M256 540.008v364.16h45.2v15.632h99.92V557.512a67.048 67.048 0 0 0 47.12-19.28 65.544 65.544 0 0 0 19.512-46.592V195.216h-33.312v197.624c-0.552 17.792-15.304 31.936-33.304 31.936s-32.752-14.144-33.304-31.936V195.216h-33.312v197.624a32.872 32.872 0 0 1-16.352 29.36 33.656 33.656 0 0 1-33.904 0 32.848 32.848 0 0 1-16.344-29.36V195.216h-33.32v296.424c0 19.12 8.24 36.336 21.4 48.368zM752 617.24V920h80v-0.184h36.6V256h-32.72c-46.536 0-80.968 19.024-109.568 71.096-19.328 35.304-26.648 97.192-26.648 177.568 0 54.448 18.736 91.416 52.336 112.576z" fill="#FFCB01" p-id="65071"></path><path d="M500.104 445.4a133.152 133.152 0 0 1-66.6 115.392v317.568a66.616 66.616 0 0 1-66.632 66.592H266.984a66.592 66.592 0 0 1-66.632-66.592V560.792a133.144 133.144 0 0 1-66.6-115.392V145.648a66.584 66.584 0 0 1 66.6-66.6h233.152a66.608 66.608 0 0 1 66.6 66.6v299.752zM400.192 145.648v199.832a33.328 33.328 0 0 1-66.608 0V145.648h-33.312v199.832a33.32 33.32 0 1 1-66.6 0V145.648h-33.32v299.752A66.608 66.608 0 0 0 266.96 512v366.36h99.92V512a66.6 66.6 0 0 0 66.632-66.6V145.648h-33.312zM836.896 79.104c34.992 1.368 62.848 30.648 62.848 66.544v732.712c0 36.784-29.312 66.592-65.392 66.592h-65.416c-36.112 0-65.424-29.776-65.424-66.592V612.784c-65.456-32.448-103.488-99.32-103.488-192.664 0-99.456 8.064-174.336 33.68-226.024C673.552 113.84 730.72 79.04 801.632 79.04h35.272v0.056zM768.96 590.608v287.752h65.392V145.648h-32.72c-46.528 0-80.968 21-109.568 78.48-19.328 38.96-26.648 107.272-26.648 195.992 0 75.504 29.568 120.544 81.024 138.816l9.216 3.312 6.296 2.336c2.792 1.08 3.912 1.424 4.4 1.552 0.864 0.08 1.72 0.128 2.584 0.08v24.392h0.024z" p-id="65072"></path></svg>