<?xml version="1.0" standalone="no"?><!DOCTYPE svg PUBLIC "-//W3C//DTD SVG 1.1//EN" "http://www.w3.org/Graphics/SVG/1.1/DTD/svg11.dtd"><svg height="1024" node-id="1" sillyvg="true" template-height="1024" template-width="1024" version="1.1" viewBox="0 0 1024 1024" width="1024" xmlns="http://www.w3.org/2000/svg" xmlns:xlink="http://www.w3.org/1999/xlink"><defs node-id="41"><linearGradient gradientUnits="objectBoundingBox" id="linearGradient-1" node-id="5" spreadMethod="pad" x1="0.49614564" x2="0.5063883" y1="-0.16281228" y2="1.593112"><stop offset="0" stop-color="#ffffff" stop-opacity="0"></stop><stop offset="1" stop-color="#9db3ff"></stop></linearGradient><linearGradient gradientUnits="objectBoundingBox" id="linearGradient-2" node-id="8" spreadMethod="pad" x1="0.14683849" x2="0.7834091" y1="0.69612205" y2="-0.49440604"><stop offset="0" stop-color="#5149f2"></stop><stop offset="1" stop-color="#f7f6ff"></stop></linearGradient><linearGradient gradientUnits="objectBoundingBox" id="linearGradient-3" node-id="11" spreadMethod="pad" x1="-0.00060295284" x2="0.5" y1="0.0023934953" y2="1"><stop offset="0" stop-color="#aeaaf9"></stop><stop offset="1" stop-color="#5149f2"></stop></linearGradient><linearGradient gradientUnits="objectBoundingBox" id="linearGradient-4" node-id="14" spreadMethod="pad" x1="0.14683849" x2="0.7834091" y1="0.69612205" y2="-0.49440604"><stop offset="0" stop-color="#5149f2"></stop><stop offset="1" stop-color="#f7f6ff"></stop></linearGradient><linearGradient gradientUnits="objectBoundingBox" id="linearGradient-5" node-id="17" spreadMethod="pad" x1="0.14683849" x2="0.7834091" y1="0.69612205" y2="-0.49440604"><stop offset="0" stop-color="#5149f2"></stop><stop offset="1" stop-color="#f7f6ff"></stop></linearGradient></defs><g node-id="107"><path d="M 527.00 767.00 L 540.65 766.67 L 554.04 765.74 L 567.18 764.22 L 580.10 762.11 L 592.81 759.42 L 605.46 756.14 L 617.81 752.33 L 629.88 748.02 L 641.67 743.18 L 653.22 737.83 L 664.54 731.95 L 675.52 725.63 L 686.17 718.86 L 696.49 711.63 L 706.50 703.95 L 716.18 695.83 L 725.45 687.33 L 734.33 678.45 L 742.83 669.18 L 750.95 659.50 L 758.63 649.49 L 765.86 639.17 L 772.63 628.52 L 778.95 617.54 L 784.83 606.22 L 790.18 594.67 L 795.02 582.88 L 799.33 570.81 L 803.13 558.46 L 806.42 545.81 L 809.11 533.10 L 811.22 520.18 L 812.74 507.04 L 813.67 493.65 L 814.00 480.00 L 813.67 466.35 L 812.74 452.96 L 811.22 439.82 L 809.11 426.90 L 806.42 414.19 L 803.13 401.54 L 799.33 389.19 L 795.02 377.12 L 790.18 365.33 L 784.83 353.78 L 778.95 342.46 L 772.63 331.48 L 765.86 320.83 L 758.63 310.51 L 750.95 300.50 L 742.83 290.82 L 734.33 281.55 L 725.45 272.67 L 716.18 264.17 L 706.50 256.05 L 696.49 248.37 L 686.17 241.14 L 675.52 234.37 L 664.54 228.05 L 653.22 222.17 L 641.67 216.82 L 629.88 211.98 L 617.81 207.67 L 605.46 203.87 L 592.81 200.58 L 580.10 197.89 L 567.18 195.78 L 554.04 194.26 L 540.65 193.33 L 527.00 193.00 L 513.35 193.33 L 499.96 194.26 L 486.82 195.78 L 473.90 197.89 L 461.19 200.58 L 448.54 203.87 L 436.19 207.67 L 424.12 211.98 L 412.33 216.82 L 400.78 222.17 L 389.46 228.05 L 378.48 234.37 L 367.83 241.14 L 357.51 248.37 L 347.50 256.05 L 337.82 264.17 L 328.55 272.67 L 319.67 281.55 L 311.17 290.82 L 303.05 300.50 L 295.37 310.51 L 288.14 320.83 L 281.37 331.48 L 275.05 342.46 L 269.17 353.78 L 263.82 365.33 L 258.98 377.12 L 254.67 389.19 L 250.87 401.54 L 247.58 414.19 L 244.89 426.90 L 242.78 439.82 L 241.26 452.96 L 240.33 466.35 L 240.00 480.00 L 240.33 493.65 L 241.26 507.04 L 242.78 520.18 L 244.89 533.10 L 247.58 545.81 L 250.87 558.46 L 254.67 570.81 L 258.98 582.88 L 263.82 594.67 L 269.17 606.22 L 275.05 617.54 L 281.37 628.52 L 288.14 639.17 L 295.37 649.49 L 303.05 659.50 L 311.17 669.18 L 319.67 678.45 L 328.55 687.33 L 337.82 695.83 L 347.50 703.95 L 357.51 711.63 L 367.83 718.86 L 378.48 725.63 L 389.46 731.95 L 400.78 737.83 L 412.33 743.18 L 424.12 748.02 L 436.19 752.33 L 448.54 756.13 L 461.19 759.42 L 473.90 762.11 L 486.82 764.22 L 499.96 765.74 L 513.35 766.67 L 527.00 767.00 Z" fill="url(#linearGradient-1)" fill-rule="nonzero" group-id="1" id="路径" node-id="22" stroke="none" target-height="574" target-width="574" target-x="240" target-y="193"></path><path d="M 661.00 509.50 L 660.77 523.87 L 660.10 537.87 L 659.02 551.54 L 657.53 564.87 L 655.59 578.27 L 653.29 591.20 L 650.63 603.67 L 647.63 615.71 L 644.18 627.77 L 640.43 639.24 L 636.41 650.16 L 632.11 660.55 L 627.33 670.89 L 622.33 680.55 L 617.14 689.55 L 611.75 697.95 L 605.84 706.17 L 599.80 713.63 L 593.63 720.38 L 587.33 726.45 L 581.90 731.07 L 576.42 735.18 L 570.89 738.79 L 565.31 741.93 L 559.65 744.62 L 553.75 746.91 L 547.80 748.69 L 541.79 749.95 L 535.70 750.73 L 529.50 751.00 L 523.30 750.73 L 517.21 749.95 L 511.20 748.69 L 505.25 746.91 L 499.35 744.62 L 493.69 741.93 L 488.11 738.79 L 482.58 735.18 L 477.10 731.07 L 471.67 726.45 L 465.37 720.38 L 459.20 713.63 L 453.16 706.17 L 447.25 697.95 L 441.86 689.55 L 436.67 680.55 L 431.67 670.89 L 426.89 660.55 L 422.59 650.16 L 418.57 639.24 L 414.82 627.77 L 411.37 615.71 L 408.37 603.67 L 405.71 591.20 L 403.41 578.27 L 401.47 564.87 L 399.98 551.54 L 398.90 537.87 L 398.23 523.87 L 398.00 509.50 L 398.23 495.13 L 398.90 481.13 L 399.98 467.46 L 401.47 454.13 L 403.41 440.73 L 405.71 427.80 L 408.37 415.33 L 411.37 403.29 L 414.82 391.23 L 418.57 379.76 L 422.59 368.84 L 426.89 358.45 L 431.67 348.11 L 436.67 338.45 L 441.86 329.45 L 447.25 321.05 L 453.16 312.83 L 459.20 305.37 L 465.37 298.62 L 471.67 292.55 L 477.10 287.93 L 482.58 283.82 L 488.11 280.21 L 493.69 277.07 L 499.35 274.38 L 505.25 272.09 L 511.20 270.31 L 517.21 269.05 L 523.30 268.27 L 529.50 268.00 L 535.70 268.27 L 541.79 269.05 L 547.80 270.31 L 553.75 272.09 L 559.65 274.38 L 565.31 277.07 L 570.89 280.21 L 576.42 283.82 L 581.90 287.93 L 587.33 292.55 L 593.63 298.62 L 599.80 305.37 L 605.84 312.83 L 611.75 321.05 L 617.14 329.45 L 622.33 338.45 L 627.33 348.11 L 632.11 358.45 L 636.41 368.84 L 640.43 379.76 L 644.18 391.23 L 647.63 403.29 L 650.63 415.33 L 653.29 427.80 L 655.59 440.73 L 657.53 454.13 L 659.02 467.46 L 660.10 481.13 L 660.77 495.13 L 661.00 509.50 Z" fill="#908bf7" fill-opacity="0.5270996" fill-rule="nonzero" group-id="1" id="椭圆形" node-id="23" stroke="none" target-height="483" target-width="263" target-x="398" target-y="268"></path><g node-id="108"><path d="M 818.62 529.03 L 818.14 527.76 L 817.49 526.77 L 816.66 526.01 L 815.15 525.25 L 813.50 525.00 L 811.85 525.25 L 810.34 526.01 L 809.51 526.77 L 808.86 527.76 L 808.38 529.03 L 807.92 530.91 L 806.84 535.40 L 805.55 540.76 L 804.47 545.24 L 804.01 547.13 L 803.48 548.48 L 802.62 549.61 L 801.48 550.48 L 800.13 551.01 L 798.24 551.47 L 793.76 552.55 L 788.40 553.84 L 783.91 554.92 L 782.03 555.38 L 780.76 555.86 L 779.77 556.51 L 779.01 557.34 L 778.25 558.85 L 778.00 560.50 L 778.25 562.15 L 779.01 563.66 L 779.77 564.49 L 780.76 565.14 L 782.03 565.62 L 783.91 566.08 L 788.40 567.16 L 793.76 568.45 L 798.24 569.53 L 800.13 569.99 L 801.48 570.52 L 802.62 571.38 L 803.48 572.52 L 804.01 573.87 L 804.47 575.76 L 805.55 580.24 L 806.84 585.60 L 807.92 590.09 L 808.38 591.97 L 808.86 593.24 L 809.51 594.23 L 810.34 594.99 L 811.85 595.75 L 813.50 596.00 L 815.15 595.75 L 816.66 594.99 L 817.49 594.23 L 818.14 593.24 L 818.62 591.97 L 819.08 590.09 L 820.16 585.60 L 821.45 580.24 L 822.53 575.76 L 822.99 573.87 L 823.52 572.52 L 824.39 571.38 L 825.52 570.52 L 826.87 569.99 L 828.76 569.53 L 833.24 568.45 L 838.60 567.16 L 843.09 566.08 L 844.97 565.62 L 846.24 565.14 L 847.23 564.49 L 847.99 563.66 L 848.75 562.15 L 849.00 560.50 L 848.75 558.85 L 847.99 557.34 L 847.23 556.51 L 846.24 555.86 L 844.97 555.38 L 843.09 554.92 L 838.60 553.84 L 833.24 552.55 L 828.76 551.47 L 826.87 551.01 L 825.52 550.48 L 824.39 549.61 L 823.52 548.48 L 822.99 547.13 L 822.53 545.24 L 821.45 540.76 L 820.16 535.40 L 819.08 530.91 L 818.62 529.03 Z" fill="url(#linearGradient-2)" fill-rule="nonzero" group-id="1,2" node-id="79" stroke="none" target-height="71" target-width="71" target-x="778" target-y="525"></path></g><path d="M 676.71 270.56 L 669.20 263.42 L 661.39 256.68 L 653.28 250.36 L 644.85 244.42 L 636.13 238.91 L 627.18 233.84 L 617.97 229.20 L 608.49 225.00 L 598.82 221.27 L 589.03 218.04 L 579.10 215.30 L 569.04 213.04 L 558.88 211.28 L 548.66 210.02 L 538.38 209.26 L 528.01 209.00 L 517.65 209.26 L 507.37 210.02 L 497.15 211.28 L 486.99 213.04 L 476.92 215.30 L 467.00 218.04 L 457.21 221.27 L 447.54 225.00 L 438.06 229.20 L 428.85 233.84 L 419.89 238.91 L 411.18 244.42 L 402.75 250.36 L 394.64 256.68 L 386.83 263.42 L 379.32 270.56 L 372.43 277.63 L 365.94 284.99 L 359.83 292.66 L 354.11 300.63 L 348.78 308.88 L 343.89 317.37 L 339.42 326.11 L 335.36 335.11 L 331.77 344.30 L 328.65 353.61 L 326.01 363.05 L 323.84 372.62 L 322.15 382.29 L 320.95 392.01 L 320.23 401.80 L 320.00 411.66 L 320.28 422.31 L 321.09 432.97 L 322.43 443.66 L 324.33 454.39 L 326.78 465.18 L 329.71 475.77 L 333.16 486.31 L 337.14 496.82 L 341.66 507.31 L 346.73 517.79 L 352.20 527.93 L 358.18 537.96 L 364.69 547.89 L 371.73 557.72 L 379.32 567.46 L 382.68 571.82 L 391.81 583.63 L 405.25 601.04 L 421.57 622.18 L 439.34 645.19 L 457.10 668.20 L 473.43 689.34 L 486.87 706.75 L 495.99 718.57 L 499.35 722.92 L 502.06 726.05 L 505.10 728.83 L 508.44 731.25 L 512.05 733.29 L 515.86 734.90 L 519.82 736.06 L 523.88 736.76 L 528.01 737.00 L 532.15 736.76 L 536.21 736.06 L 540.17 734.90 L 543.98 733.29 L 547.59 731.25 L 550.93 728.83 L 553.96 726.05 L 556.68 722.92 L 560.04 718.57 L 569.16 706.75 L 582.60 689.34 L 598.93 668.20 L 616.69 645.19 L 634.46 622.18 L 650.78 601.04 L 664.22 583.63 L 673.35 571.82 L 676.71 567.46 L 684.30 557.72 L 691.34 547.89 L 697.84 537.96 L 703.82 527.93 L 709.29 517.79 L 714.36 507.31 L 718.88 496.82 L 722.85 486.31 L 726.30 475.77 L 729.23 465.18 L 731.68 454.39 L 733.57 443.66 L 734.92 432.97 L 735.72 422.31 L 736.00 411.66 L 735.77 401.80 L 735.06 392.01 L 733.86 382.29 L 732.17 372.62 L 730.00 363.05 L 727.36 353.61 L 724.24 344.31 L 720.65 335.11 L 716.60 326.11 L 712.13 317.38 L 707.24 308.89 L 701.92 300.64 L 696.19 292.66 L 690.09 285.00 L 683.60 277.63 L 676.71 270.56 Z" fill="url(#linearGradient-3)" fill-rule="nonzero" group-id="1" id="路径" node-id="26" stroke="none" target-height="528" target-width="416" target-x="320" target-y="209"></path><path d="M 527.50 504.00 L 534.77 503.69 L 541.78 502.84 L 548.57 501.46 L 555.16 499.54 L 561.60 497.10 L 567.74 494.22 L 573.59 490.89 L 579.18 487.12 L 584.46 482.92 L 589.37 478.37 L 593.92 473.46 L 598.12 468.18 L 601.89 462.59 L 605.22 456.74 L 608.10 450.60 L 610.54 444.16 L 612.46 437.57 L 613.84 430.78 L 614.69 423.77 L 615.00 416.50 L 614.69 409.23 L 613.84 402.22 L 612.46 395.43 L 610.54 388.84 L 608.10 382.40 L 605.22 376.26 L 601.89 370.41 L 598.12 364.82 L 593.92 359.54 L 589.37 354.63 L 584.46 350.08 L 579.18 345.88 L 573.59 342.11 L 567.74 338.78 L 561.60 335.90 L 555.16 333.46 L 548.57 331.55 L 541.78 330.16 L 534.77 329.31 L 527.50 329.00 L 520.23 329.31 L 513.22 330.16 L 506.43 331.54 L 499.84 333.46 L 493.40 335.90 L 487.26 338.78 L 481.41 342.11 L 475.82 345.88 L 470.54 350.08 L 465.63 354.63 L 461.08 359.54 L 456.88 364.82 L 453.11 370.41 L 449.78 376.26 L 446.90 382.40 L 444.46 388.84 L 442.54 395.43 L 441.16 402.22 L 440.31 409.23 L 440.00 416.50 L 440.31 423.77 L 441.16 430.78 L 442.55 437.57 L 444.46 444.16 L 446.90 450.60 L 449.78 456.74 L 453.11 462.59 L 456.88 468.18 L 461.08 473.46 L 465.63 478.37 L 470.54 482.92 L 475.82 487.12 L 481.41 490.89 L 487.26 494.22 L 493.40 497.10 L 499.84 499.54 L 506.43 501.45 L 513.22 502.84 L 520.23 503.69 L 527.50 504.00 Z" fill="#ffffff" fill-rule="nonzero" group-id="1" id="路径" node-id="27" stroke="none" target-height="175" target-width="175" target-x="440" target-y="329"></path><path d="M 465.62 741.03 L 465.14 739.76 L 464.49 738.77 L 463.66 738.01 L 462.15 737.25 L 460.50 737.00 L 458.85 737.25 L 457.34 738.01 L 456.51 738.77 L 455.86 739.76 L 455.38 741.03 L 454.92 742.91 L 453.84 747.40 L 452.55 752.76 L 451.47 757.24 L 451.01 759.13 L 450.48 760.48 L 449.62 761.61 L 448.48 762.48 L 447.13 763.01 L 445.24 763.47 L 440.76 764.55 L 435.40 765.84 L 430.91 766.92 L 429.03 767.38 L 427.76 767.86 L 426.77 768.51 L 426.01 769.34 L 425.25 770.85 L 425.00 772.50 L 425.25 774.15 L 426.01 775.66 L 426.77 776.49 L 427.76 777.14 L 429.03 777.62 L 430.91 778.08 L 435.40 779.16 L 440.76 780.45 L 445.24 781.53 L 447.13 781.99 L 448.48 782.52 L 449.62 783.38 L 450.48 784.52 L 451.01 785.87 L 451.47 787.76 L 452.55 792.24 L 453.84 797.60 L 454.92 802.09 L 455.38 803.97 L 455.86 805.24 L 456.51 806.23 L 457.34 806.99 L 458.85 807.75 L 460.50 808.00 L 462.15 807.75 L 463.66 806.99 L 464.49 806.23 L 465.14 805.24 L 465.62 803.97 L 466.08 802.09 L 467.16 797.60 L 468.45 792.24 L 469.53 787.76 L 469.99 785.87 L 470.52 784.52 L 471.39 783.38 L 472.52 782.52 L 473.87 781.99 L 475.76 781.53 L 480.24 780.45 L 485.60 779.16 L 490.09 778.08 L 491.97 777.62 L 493.24 777.14 L 494.23 776.49 L 494.99 775.66 L 495.75 774.15 L 496.00 772.50 L 495.75 770.85 L 494.99 769.34 L 494.23 768.51 L 493.24 767.86 L 491.97 767.38 L 490.09 766.92 L 485.60 765.84 L 480.24 764.55 L 475.76 763.47 L 473.87 763.01 L 472.52 762.48 L 471.39 761.61 L 470.52 760.48 L 469.99 759.13 L 469.53 757.24 L 468.45 752.76 L 467.16 747.40 L 466.08 742.91 L 465.62 741.03 Z" fill="url(#linearGradient-2)" fill-rule="nonzero" group-id="1,3" node-id="85" stroke="none" target-height="71" target-width="71" target-x="425" target-y="737"></path><path d="M 329.62 262.03 L 329.14 260.76 L 328.49 259.77 L 327.66 259.01 L 326.15 258.25 L 324.50 258.00 L 322.85 258.25 L 321.34 259.01 L 320.51 259.77 L 319.86 260.76 L 319.38 262.03 L 318.92 263.91 L 317.84 268.40 L 316.55 273.76 L 315.47 278.24 L 315.01 280.13 L 314.48 281.48 L 313.62 282.61 L 312.48 283.48 L 311.13 284.01 L 309.24 284.47 L 304.76 285.55 L 299.40 286.84 L 294.91 287.92 L 293.03 288.38 L 291.76 288.86 L 290.77 289.51 L 290.01 290.34 L 289.25 291.85 L 289.00 293.50 L 289.25 295.15 L 290.01 296.66 L 290.77 297.49 L 291.76 298.14 L 293.03 298.62 L 294.91 299.08 L 299.40 300.16 L 304.76 301.45 L 309.24 302.53 L 311.13 302.99 L 312.48 303.52 L 313.62 304.38 L 314.48 305.52 L 315.01 306.87 L 315.47 308.76 L 316.55 313.24 L 317.84 318.60 L 318.92 323.09 L 319.38 324.97 L 319.86 326.24 L 320.51 327.23 L 321.34 327.99 L 322.85 328.75 L 324.50 329.00 L 326.15 328.75 L 327.66 327.99 L 328.49 327.23 L 329.14 326.24 L 329.62 324.97 L 330.08 323.09 L 331.16 318.60 L 332.45 313.24 L 333.53 308.76 L 333.99 306.87 L 334.52 305.52 L 335.39 304.38 L 336.52 303.52 L 337.87 302.99 L 339.76 302.53 L 344.24 301.45 L 349.60 300.16 L 354.09 299.08 L 355.97 298.62 L 357.24 298.14 L 358.23 297.49 L 358.99 296.66 L 359.75 295.15 L 360.00 293.50 L 359.75 291.85 L 358.99 290.34 L 358.23 289.51 L 357.24 288.86 L 355.97 288.38 L 354.09 287.92 L 349.60 286.84 L 344.24 285.55 L 339.76 284.47 L 337.87 284.01 L 336.52 283.48 L 335.39 282.61 L 334.52 281.48 L 333.99 280.13 L 333.53 278.24 L 332.45 273.76 L 331.16 268.40 L 330.08 263.91 L 329.62 262.03 Z" fill="url(#linearGradient-2)" fill-rule="nonzero" group-id="1,4" node-id="89" stroke="none" target-height="71" target-width="71" target-x="289" target-y="258"></path><path d="M 412.00 193.00 L 412.20 195.19 L 412.75 197.20 L 413.64 199.06 L 414.83 200.74 L 416.26 202.17 L 417.94 203.36 L 419.80 204.25 L 421.81 204.80 L 424.00 205.00 L 426.19 204.80 L 428.20 204.25 L 430.06 203.36 L 431.74 202.17 L 433.17 200.74 L 434.36 199.06 L 435.25 197.20 L 435.80 195.19 L 436.00 193.00 L 435.80 190.81 L 435.25 188.80 L 434.36 186.94 L 433.17 185.26 L 431.74 183.83 L 430.06 182.64 L 428.20 181.75 L 426.19 181.20 L 424.00 181.00 L 421.81 181.20 L 419.80 181.75 L 417.94 182.64 L 416.26 183.83 L 414.83 185.26 L 413.64 186.94 L 412.75 188.80 L 412.20 190.81 L 412.00 193.00 Z" fill="none" group-id="1,5" node-id="93" stroke="url(#linearGradient-2)" stroke-linecap="butt" stroke-width="2.6262975" target-height="24" target-width="24" target-x="412" target-y="181"></path><path d="M 796.60 331.73 L 797.71 330.55 L 798.29 329.19 L 798.38 327.72 L 797.98 326.30 L 797.13 325.09 L 795.80 324.18 L 793.63 323.22 L 788.47 320.94 L 782.31 318.21 L 777.15 315.92 L 774.99 314.96 L 773.42 314.59 L 771.95 314.77 L 770.63 315.43 L 769.60 316.48 L 768.98 317.82 L 768.86 319.43 L 769.11 321.79 L 769.71 327.40 L 770.43 334.10 L 771.03 339.71 L 771.28 342.06 L 771.74 343.61 L 772.63 344.79 L 773.86 345.60 L 775.28 345.97 L 776.76 345.84 L 778.21 345.14 L 780.13 343.74 L 784.69 340.42 L 790.13 336.45 L 794.69 333.12 L 796.60 331.73 Z" fill="url(#linearGradient-4)" fill-rule="nonzero" group-id="1,6" node-id="97" stroke="none" target-height="31.383179" target-width="29.519531" target-x="768.8575" target-y="314.58527"></path><path d="M 702.46 711.08 L 700.85 710.98 L 699.43 711.40 L 698.25 712.28 L 697.41 713.49 L 697.02 714.91 L 697.17 716.52 L 697.81 718.80 L 699.35 724.23 L 701.18 730.71 L 702.71 736.15 L 703.36 738.42 L 704.07 739.87 L 705.15 740.89 L 706.50 741.48 L 707.96 741.60 L 709.39 741.22 L 710.71 740.29 L 712.36 738.59 L 716.30 734.55 L 721.00 729.72 L 724.94 725.68 L 726.59 723.98 L 727.49 722.64 L 727.82 721.20 L 727.66 719.73 L 727.03 718.40 L 725.99 717.35 L 724.52 716.68 L 722.23 716.10 L 716.76 714.71 L 710.23 713.05 L 704.76 711.67 L 702.46 711.08 Z" fill="url(#linearGradient-5)" fill-rule="nonzero" group-id="1,7" node-id="101" stroke="none" target-height="30.62384" target-width="30.804016" target-x="697.0192" target-y="710.9768"></path><path d="M 270.00 739.00 L 270.20 741.19 L 270.75 743.20 L 271.64 745.06 L 272.83 746.74 L 274.26 748.17 L 275.94 749.36 L 277.80 750.25 L 279.81 750.80 L 282.00 751.00 L 284.19 750.80 L 286.20 750.25 L 288.06 749.36 L 289.74 748.17 L 291.17 746.74 L 292.36 745.06 L 293.25 743.20 L 293.80 741.19 L 294.00 739.00 L 293.80 736.81 L 293.25 734.80 L 292.36 732.94 L 291.17 731.26 L 289.74 729.83 L 288.06 728.64 L 286.20 727.75 L 284.19 727.20 L 282.00 727.00 L 279.81 727.20 L 277.80 727.75 L 275.94 728.64 L 274.26 729.83 L 272.83 731.26 L 271.64 732.94 L 270.75 734.80 L 270.20 736.81 L 270.00 739.00 Z" fill="none" group-id="1,8" node-id="105" stroke="url(#linearGradient-2)" stroke-linecap="butt" stroke-width="2.6262975" target-height="24" target-width="24" target-x="270" target-y="727"></path></g></svg>