<?xml version="1.0" standalone="no"?><!DOCTYPE svg PUBLIC "-//W3C//DTD SVG 1.1//EN" "http://www.w3.org/Graphics/SVG/1.1/DTD/svg11.dtd"><svg t="1713663698077" class="icon" viewBox="0 0 1024 1024" version="1.1" xmlns="http://www.w3.org/2000/svg" p-id="4392" xmlns:xlink="http://www.w3.org/1999/xlink" width="48" height="48"><path d="M659.4 837.1l-317.1-2.2c-10.6-0.1-19.2-8.8-19.1-19.4l2.8-396.6c0.1-10.6 8.8-19.2 19.4-19.1l336.4 2.4c10.6 0.1 19.2 8.8 19.1 19.4l-2.6 377.3c-0.2 21.2-17.6 38.3-38.9 38.2z" fill="#FFD45A" p-id="4393"></path><path d="M758.8 858.8h-0.4L261 855.3c-31.9-0.2-57.7-26.3-57.4-58.2l3.9-550c0.1-15.5 6.2-29.9 17.2-40.8 11-10.8 26-17 41-16.7l497.4 3.5c15.4 0.1 29.9 6.2 40.8 17.2 10.9 11 16.8 25.6 16.7 41l-3.9 550c-0.1 15.5-6.2 29.9-17.2 40.8-11 10.8-25.4 16.7-40.7 16.7zM265.2 228.3c-10.6 0-19.2 8.6-19.3 19.1l-3.9 550c0 5.1 1.9 10 5.6 13.7s8.5 5.7 13.6 5.7l497.4 3.5c10.1 0 19.4-8.5 19.4-19.1l3.9-550c0-5.1-1.9-10-5.6-13.7-3.6-3.7-8.4-5.7-13.6-5.7l-497.4-3.5h-0.1z" fill="#593A25" p-id="4394"></path><path d="M552.1 522.5h-0.7l-78.8-0.6c-25.8-0.2-49.9-10.4-68-28.7-18.1-18.3-27.9-42.6-27.8-68.4l0.8-110.8c0.1-10.6 8.7-19.1 19.3-19.1h0.1c10.7 0.1 19.2 8.8 19.1 19.4l-0.8 110.8c-0.1 15.4 5.8 30 16.6 41 10.9 11 25.3 17.1 40.8 17.2l78.8 0.6h0.4c31.7 0 57.6-25.7 57.8-57.4l0.8-110.8c0.1-10.6 8.1-19.7 19.4-19.1 10.7 0.1 19.2 8.8 19.1 19.4l-0.8 110.8c-0.1 52.9-43.3 95.7-96.1 95.7z" fill="#593A25" p-id="4395"></path></svg>